<svg width="24" height="24" viewBox="0 0 24 24" fill="none" xmlns="http://www.w3.org/2000/svg">
<g clip-path="url(#clip0_56_53)">
<path d="M5.83594 0.0749969C4.92188 0.229685 4.01719 0.59531 3.225 1.12968C2.64375 1.52344 1.52813 2.63906 1.13907 3.21094C0.768754 3.75937 0.501566 4.29844 0.304691 4.88906C-0.00937108 5.84531 3.91768e-06 5.63437 3.91768e-06 12C3.91768e-06 18.3 -0.00937108 18.0984 0.281254 19.0312C0.609379 20.1 1.12969 20.9156 2.10938 21.8953C3.0375 22.8281 3.7875 23.3156 4.80469 23.6625C5.77969 23.9953 5.36719 23.9766 12 23.9766C18.6328 23.9766 18.2203 23.9953 19.1953 23.6625C20.2172 23.3156 20.9484 22.8328 21.8906 21.8906C22.8703 20.9156 23.3906 20.1 23.7188 19.0312C23.9531 18.2672 24 17.8734 24 16.575C24 15.4453 23.9953 15.3891 23.8922 15.2109C23.8359 15.1125 23.6953 14.9625 23.5875 14.8828C23.4094 14.7609 23.3438 14.7422 23.0625 14.7422C22.7813 14.7422 22.7156 14.7609 22.5375 14.8828C22.4297 14.9625 22.2891 15.1125 22.2328 15.2109C22.1344 15.3844 22.125 15.4594 22.125 16.125C22.125 17.0812 22.0547 17.85 21.9375 18.2766C21.7078 19.0969 21.2672 19.8 20.5313 20.5312C19.5141 21.5437 18.6516 21.9656 17.3672 22.0781C16.7016 22.1391 7.32188 22.1391 6.63282 22.0781C5.50313 21.9844 4.68282 21.6234 3.77813 20.8359C2.85 20.025 2.26407 19.1062 2.00157 18.0469C1.90782 17.6578 1.90313 17.5359 1.88907 12.4687C1.875 9.14531 1.88438 7.06875 1.91719 6.67969C2.025 5.35781 2.45157 4.47656 3.49219 3.44531C4.73438 2.2125 5.64375 1.88437 7.82813 1.875C8.54063 1.875 8.61563 1.86562 8.78907 1.76719C8.8875 1.71094 9.0375 1.57031 9.11719 1.4625C9.23907 1.28437 9.25782 1.21875 9.25782 0.937498C9.25782 0.656248 9.23907 0.590622 9.11719 0.412498C9.0375 0.304686 8.8875 0.164061 8.78907 0.107811C8.60625 0.00468445 8.56407 -1.90735e-06 7.40625 0.00468445C6.6375 0.00937271 6.07969 0.0328102 5.83594 0.0749969Z" fill="#E8E8E8"/>
<path d="M13.4297 1.90313C12.8391 2.22188 12.7078 2.9625 13.1625 3.43594C13.4485 3.73594 13.3219 3.72656 16.125 3.74063C17.5313 3.74531 18.7125 3.76406 18.7453 3.77813C18.7922 3.79219 16.9031 5.71406 13.1578 9.45938C9.15471 13.4672 7.48127 15.1688 7.42971 15.2906C7.28908 15.6328 7.36877 16.0922 7.60783 16.3547C7.85158 16.6172 8.35314 16.7156 8.70939 16.5703C8.83127 16.5187 10.5328 14.85 14.536 10.8469L20.1891 5.19375L20.2172 5.37656C20.236 5.475 20.25 6.64688 20.25 7.98281C20.25 10.275 20.2547 10.4203 20.3391 10.5844C20.6531 11.1984 21.4641 11.2922 21.9235 10.7625C22.0078 10.6688 22.0922 10.5328 22.111 10.4625C22.1344 10.3922 22.1485 9.14531 22.1485 7.6875C22.1485 5.06719 22.1485 5.03438 22.0406 4.64062C21.75 3.58594 21.0281 2.69531 20.086 2.22656C19.3031 1.84219 19.4485 1.85625 16.336 1.84219C13.875 1.83281 13.5563 1.8375 13.4297 1.90313Z" fill="#E8E8E8"/>
</g>
<defs>
<clipPath id="clip0_56_53">
<rect width="24" height="24" fill="white"/>
</clipPath>
</defs>
</svg>
