<?xml version="1.0" standalone="no"?>
<!DOCTYPE svg PUBLIC "-//W3C//DTD SVG 20010904//EN"
 "http://www.w3.org/TR/2001/REC-SVG-20010904/DTD/svg10.dtd">
<svg version="1.0" xmlns="http://www.w3.org/2000/svg"
 width="512.000000pt" height="512.000000pt" viewBox="0 0 512.000000 512.000000"
 preserveAspectRatio="xMidYMid meet">
<metadata>
Created by potrace 1.16, written by Peter Selinger 2001-2019
</metadata>
<g transform="translate(0.000000,512.000000) scale(0.100000,-0.100000)"
fill="#000000" stroke="none">
<path d="M1245 5104 c-195 -33 -388 -111 -557 -225 -124 -84 -362 -322 -445
-444 -79 -117 -136 -232 -178 -358 -67 -204 -65 -159 -65 -1517 0 -1344 -2
-1301 60 -1500 70 -228 181 -402 390 -611 198 -199 358 -303 575 -377 208 -71
120 -67 1535 -67 1415 0 1327 -4 1535 67 218 74 374 177 575 378 209 208 320
382 390 610 50 163 60 247 60 524 0 241 -1 253 -23 291 -12 21 -42 53 -65 70
-38 26 -52 30 -112 30 -60 0 -74 -4 -112 -30 -23 -17 -53 -49 -65 -70 -21 -37
-23 -53 -23 -195 0 -204 -15 -368 -40 -459 -49 -175 -143 -325 -300 -481 -217
-216 -401 -306 -675 -330 -142 -13 -2143 -13 -2290 0 -241 20 -416 97 -609
265 -198 173 -323 369 -379 595 -20 83 -21 109 -24 1190 -3 709 -1 1152 6
1235 23 282 114 470 336 690 265 263 459 333 925 335 152 0 168 2 205 23 21
12 53 42 70 65 26 38 30 52 30 112 0 60 -4 74 -30 112 -17 23 -49 53 -70 65
-39 22 -48 23 -295 22 -164 -1 -283 -6 -335 -15z"/>
<path d="M2865 4714 c-126 -68 -154 -226 -57 -327 61 -64 34 -62 632 -65 300
-1 552 -5 559 -8 10 -3 -393 -413 -1192 -1212 -854 -855 -1211 -1218 -1222
-1244 -30 -73 -13 -171 38 -227 52 -56 159 -77 235 -46 26 11 389 367 1243
1221 l1206 1206 6 -39 c4 -21 7 -271 7 -556 0 -489 1 -520 19 -555 67 -131
240 -151 338 -38 18 20 36 49 40 64 5 15 8 281 8 592 0 559 0 566 -23 650 -62
225 -216 415 -417 515 -167 82 -136 79 -800 82 -525 2 -593 1 -620 -13z"/>
</g>
</svg>
