<svg width="24" height="24" viewBox="0 0 24 24" fill="none" xmlns="http://www.w3.org/2000/svg">
<g clip-path="url(#clip0_56_64)">
<path d="M11.5313 1.09219C11.25 1.24219 11.0719 1.5 11.0156 1.85156C10.9875 2.025 10.9688 4.67344 10.9688 8.83594V15.5391L8.73282 13.3031L6.49219 11.0719L6.22969 11.0156C5.76563 10.9125 5.30157 11.1281 5.07188 11.55C4.95938 11.7656 4.96876 12.2578 5.09532 12.4922C5.24532 12.7688 11.3672 18.8672 11.5875 18.9609C11.8125 19.05 12.2344 19.05 12.4594 18.9609C12.7125 18.8531 18.8531 12.7125 18.9984 12.4219C19.3219 11.7516 18.8531 10.9594 18.1172 10.9547C17.625 10.95 17.6813 10.8984 15.2719 13.3031L13.0313 15.5391V8.62031V1.70156L12.9234 1.49531C12.8625 1.38281 12.7219 1.22812 12.6141 1.14844C12.4453 1.03125 12.3609 1.00781 12.0797 0.99375C11.7938 0.979687 11.7094 0.99375 11.5313 1.09219Z" fill="#222222"/>
<path d="M1.78594 17.025C1.47188 17.0766 1.23281 17.2641 1.09688 17.5453L0.984375 17.7891V20.0391C0.984375 22.125 0.99375 22.3031 1.07344 22.4813C1.17656 22.7063 1.45781 22.9547 1.6875 23.0156C1.95 23.0906 22.1297 23.0766 22.3781 23.0063C22.6266 22.9313 22.9313 22.6266 23.0063 22.3781C23.0484 22.2375 23.0625 21.5953 23.0625 20.0016V17.8219L22.9313 17.5734C22.7438 17.2125 22.4531 17.0391 22.0359 17.0391C21.6984 17.0438 21.5297 17.1094 21.3094 17.325C21.0234 17.6156 21.0234 17.5922 21.0094 19.3688L20.9953 21H12.0234H3.05625L3.0375 19.3688C3.02344 17.8875 3.01406 17.7281 2.93438 17.5781C2.69531 17.1281 2.29688 16.9359 1.78594 17.025Z" fill="#222222"/>
</g>
<defs>
<clipPath id="clip0_56_64">
<rect width="24" height="24" fill="white"/>
</clipPath>
</defs>
</svg>
