<?xml version="1.0" standalone="no"?>
<!DOCTYPE svg PUBLIC "-//W3C//DTD SVG 20010904//EN"
 "http://www.w3.org/TR/2001/REC-SVG-20010904/DTD/svg10.dtd">
<svg version="1.0" xmlns="http://www.w3.org/2000/svg"
 width="512.000000pt" height="512.000000pt" viewBox="0 0 512.000000 512.000000"
 preserveAspectRatio="xMidYMid meet">
<metadata>
Created by potrace 1.16, written by Peter Selinger 2001-2019
</metadata>
<g transform="translate(0.000000,512.000000) scale(0.100000,-0.100000)"
fill="#000000" stroke="none">
<path d="M2460 4887 c-60 -32 -98 -87 -110 -162 -6 -37 -10 -602 -10 -1490 l0
-1430 -477 477 -478 476 -56 12 c-99 22 -198 -24 -247 -114 -24 -46 -22 -151
5 -201 32 -59 1338 -1360 1385 -1380 48 -19 138 -19 186 0 54 23 1364 1333
1395 1395 69 143 -31 312 -188 313 -105 1 -93 12 -607 -501 l-478 -477 0 1476
0 1476 -23 44 c-13 24 -43 57 -66 74 -36 25 -54 30 -114 33 -61 3 -79 0 -117
-21z"/>
<path d="M381 1488 c-67 -11 -118 -51 -147 -111 l-24 -52 0 -480 c0 -445 2
-483 19 -521 22 -48 82 -101 131 -114 56 -16 4361 -13 4414 2 53 16 118 81
134 134 9 30 12 167 12 507 l0 465 -28 53 c-40 77 -102 114 -191 114 -72 -1
-108 -15 -155 -61 -61 -62 -61 -57 -64 -436 l-3 -348 -1914 0 -1913 0 -4 348
c-3 316 -5 350 -22 382 -51 96 -136 137 -245 118z"/>
</g>
</svg>
