<svg width="40" height="40" viewBox="0 0 40 40" fill="none" xmlns="http://www.w3.org/2000/svg">
<g clip-path="url(#clip0_12_38)">
<path d="M18.1328 0.078125C14.25 0.453125 10.3984 2.03906 7.38281 4.49219C6.49219 5.21094 5.08594 6.63281 4.38281 7.51562C2.59375 9.75781 1.125 12.7891 0.515625 15.5078C0.132812 17.2109 0.046875 18.0469 0.046875 20C0.046875 21.9531 0.132812 22.7891 0.515625 24.4922C1.13281 27.2656 2.64062 30.3438 4.49219 32.6172C5.21094 33.5078 6.63281 34.9141 7.51562 35.6172C9.75781 37.4062 12.7891 38.875 15.5078 39.4844C17.2109 39.8672 18.0469 39.9531 20 39.9531C21.9531 39.9531 22.7891 39.8672 24.4922 39.4844C26.5312 39.0312 29.2031 37.8906 30.9609 36.7266C34 34.7031 36.3359 32.0469 37.9375 28.7891C38.9141 26.7969 39.4688 25.0078 39.8203 22.7344C40.0078 21.4766 40.0078 18.5234 39.8203 17.2656C39.4688 14.9922 38.9141 13.2031 37.9375 11.2109C36.8906 9.08594 35.7266 7.46094 34.0469 5.80469C32.3984 4.17188 30.8906 3.10156 28.7891 2.07031C26.8203 1.10156 24.9922 0.53125 22.8125 0.195312C21.8281 0.046875 19.1562 -0.015625 18.1328 0.078125ZM28.9688 11.1328C28.6094 11.4922 20.0156 18.1953 19.9453 18.1641C19.8672 18.1406 10.9688 11.3594 10.75 11.1641C10.7031 11.125 14.7656 11.0938 19.8438 11.0938C24.8828 11.0938 28.9922 11.1094 28.9688 11.1328ZM29.9219 21.4062V28.9062H19.8438H9.76562V21.5234V14.1328L12.0938 15.8984C19.6172 21.6016 19.2266 21.3203 19.7031 21.4141C20.1016 21.4922 20.1719 21.4844 20.4844 21.3281C20.6641 21.2344 22.8594 19.5312 25.3516 17.5391C27.8438 15.5469 29.8906 13.9141 29.9062 13.9141C29.9141 13.9062 29.9219 17.2812 29.9219 21.4062Z" fill="#E8E8E8"/>
</g>
<defs>
<clipPath id="clip0_12_38">
<rect width="40" height="40" fill="white"/>
</clipPath>
</defs>
</svg>
