<svg width="40" height="40" viewBox="0 0 40 40" fill="none" xmlns="http://www.w3.org/2000/svg">
<g clip-path="url(#clip0_16_46)">
<path d="M18.0859 0.0859375C11.8359 0.734375 6.35939 4.13281 3.03126 9.42969C-1.68749 16.9297 -0.804676 26.8438 5.15626 33.375C8.46095 36.9922 12.5859 39.1563 17.5391 39.8594C18.4609 39.9922 21.5313 39.9844 22.5 39.8594C27.0234 39.2344 31.0703 37.2266 34.1484 34.0859C35.1641 33.0547 35.375 32.8125 36.0469 31.9219C38.0469 29.2578 39.3516 26.0078 39.8594 22.4609C39.9922 21.5391 39.9922 18.4609 39.8594 17.5391C39.5234 15.1719 38.9063 13.1562 37.9297 11.1797C36.8828 9.08594 35.8203 7.59375 34.1563 5.91406C31.0703 2.78906 27.2109 0.84375 22.7734 0.1875C21.8125 0.046875 19.0391 -0.015625 18.0859 0.0859375ZM12.9297 8.71875C13.4844 8.91406 14.1484 9.58594 14.3359 10.1562C14.7891 11.4844 14.1797 12.8828 12.9375 13.3516C11.4766 13.8984 9.9922 13.4453 9.32814 12.25C9.1172 11.8672 9.10157 11.7734 9.10157 11.0547C9.10157 10.3984 9.13282 10.2188 9.27345 9.95312C9.64064 9.26562 10.1797 8.82812 10.9297 8.61719C11.3906 8.48438 12.4141 8.53906 12.9297 8.71875ZM27.7734 15.4297C28.5625 15.6484 29.4375 16.1484 30 16.7188C30.6016 17.3281 30.9609 17.9141 31.2656 18.7656C31.6953 19.9922 31.7188 20.2891 31.7188 25.4766V30.2344H29.2969H26.875V25.9531C26.875 22.5781 26.8516 21.5703 26.7656 21.1641C26.5625 20.2109 26.1797 19.6641 25.4844 19.3203C24.8672 19.0156 23.9922 19.0078 23.3594 19.3047C22.7969 19.5703 22.3281 20.0547 22.0156 20.6875L21.7578 21.2109L21.7344 25.7188L21.7109 30.2344H19.2891H16.875V22.8906V15.5469H19.2969H21.7188V16.5781L21.7266 17.6172L21.9219 17.3828C22.0313 17.25 22.2578 16.9844 22.4219 16.7812C22.9922 16.1094 24.1172 15.4922 25.1172 15.3125C25.6719 15.2109 27.2188 15.2812 27.7734 15.4297ZM14.2031 22.9062L14.2188 30.2344H11.7578H9.29689V22.9453C9.29689 18.9297 9.32032 15.625 9.35157 15.6016C9.38282 15.5703 10.4766 15.5547 11.7891 15.5625L14.1797 15.5859L14.2031 22.9062Z" fill="#E8E8E8"/>
</g>
<defs>
<clipPath id="clip0_16_46">
<rect width="40" height="40" fill="white"/>
</clipPath>
</defs>
</svg>
