<svg width="40" height="40" viewBox="0 0 40 40" fill="none" xmlns="http://www.w3.org/2000/svg">
<g clip-path="url(#clip0_12_41)">
<path d="M18.1328 0.0781288C11.3515 0.734379 5.28903 4.84375 2.21872 10.875C1.13279 13.0078 0.49216 15.0625 0.140598 17.5391C-0.0156525 18.6328 0.00778504 21.4766 0.187473 22.6953C0.49216 24.8672 1.13279 26.9219 2.11716 28.8984C4.06247 32.8203 7.17185 35.9297 11.1015 37.8828C17.4687 41.0547 25 40.6172 30.9375 36.7344C33.2578 35.2188 35.4609 32.9688 36.9609 30.5781C37.539 29.6719 38.3984 27.9063 38.789 26.8438C39.1875 25.7656 39.6484 23.9063 39.8125 22.6953C39.9922 21.4688 40.0156 18.625 39.8593 17.5391C39.3984 14.2969 38.3672 11.5313 36.6562 8.95313C35.9375 7.85938 35.2109 6.96875 34.1953 5.94532C31.0781 2.79688 27.2031 0.843754 22.7734 0.187504C21.8203 0.0468788 19.1328 -0.0156212 18.1328 0.0781288ZM21.5625 7.60938C23.1172 7.82032 24.289 8.1875 25.7109 8.92188C31.664 11.9766 34.0937 19.3516 31.1172 25.3516C29.8984 27.8047 28.0468 29.6875 25.6172 30.9297C22.3515 32.5938 18.5078 32.7266 15.1015 31.2813L14.4609 31.0078L11.3125 31.75C9.5781 32.1641 8.11716 32.5 8.05466 32.5C7.86716 32.5 7.65622 32.2578 7.65622 32.0391C7.65622 31.9297 7.94528 30.4297 8.29685 28.7188C8.92966 25.6406 8.92966 25.5938 8.81247 25.2813C8.74216 25.1016 8.55466 24.625 8.39841 24.2188C7.41403 21.6953 7.35935 18.6953 8.24216 15.9766C8.53903 15.0781 9.30466 13.5625 9.86716 12.7578C10.4687 11.8984 11.9453 10.4219 12.789 9.82031C15.3281 8.02344 18.5468 7.21094 21.5625 7.60938Z" fill="#E8E8E8"/>
<path d="M19.414 10.2109C17.9531 10.3281 16.7969 10.6563 15.5469 11.2969C11.3281 13.4609 9.31248 18.3672 10.7812 22.9141C10.9062 23.3047 11.1875 23.9688 11.3984 24.3906L11.7734 25.1406L11.3906 27C11.1797 28.0234 11.0234 28.8984 11.0312 28.9531C11.0469 29.0078 11.6562 28.8984 12.9297 28.5938L14.8047 28.1484L15.5469 28.5156C18.8359 30.1484 22.5 29.9219 25.5 27.8906C29.0234 25.5234 30.5625 20.9141 29.2031 16.8359C28.2344 13.9297 25.8906 11.6016 23.0078 10.6797C22.1719 10.4141 21.7422 10.3281 20.8594 10.2344C20.125 10.1563 20.0234 10.1563 19.414 10.2109ZM16.289 14.0156C16.5859 14.1406 16.6562 14.2656 17.3515 15.8359C17.6015 16.4219 17.8125 17.0078 17.8125 17.1563C17.8125 17.3438 17.7031 17.5547 17.3828 17.9766C16.8594 18.6641 16.8281 18.9141 17.1953 19.5C17.4922 19.9766 18.9062 21.375 19.6875 21.9688C20.9062 22.8984 21.4453 23.1172 21.8984 22.8828C21.9922 22.8281 22.289 22.5859 22.5547 22.3359C22.9453 21.9609 23.0781 21.875 23.2969 21.875C23.4375 21.875 24.1562 22.0547 24.8828 22.2656C26.0156 22.5938 26.2422 22.6797 26.4297 22.8906C26.5781 23.0625 26.6406 23.2109 26.6406 23.4297C26.6406 24.0703 25.4922 25.375 24.6328 25.7109C24.0312 25.9453 22.6562 25.9688 21.8359 25.75C19.8594 25.2266 17.4765 23.5547 15.7344 21.4609C14.3515 19.8125 13.7969 18.5313 13.789 17.0313C13.789 16.2578 13.8047 16.1797 14.0469 15.6797C14.2187 15.3359 14.5 14.9609 14.8515 14.6016C15.5547 13.8906 15.7734 13.8047 16.289 14.0156Z" fill="#E8E8E8"/>
</g>
<defs>
<clipPath id="clip0_12_41">
<rect width="40" height="40" fill="white"/>
</clipPath>
</defs>
</svg>
