<svg width="40" height="40" viewBox="0 0 40 40" fill="none" xmlns="http://www.w3.org/2000/svg">
<g clip-path="url(#clip0_12_35)">
<path d="M18.4375 0.554688C17.2344 0.640625 15.6484 0.921875 14.4062 1.28125C7.35937 3.30469 1.88281 9.22656 0.42187 16.3906C-0.64063 21.6172 0.35937 26.9766 3.1875 31.2969C5.17968 34.3437 7.71875 36.6562 10.75 38.2187C11.8516 38.7891 13.4141 39.4219 13.8984 39.5C14.3516 39.5703 14.75 39.3516 14.9375 38.9297C15.0781 38.6172 15.0781 38.4609 15.0312 36.6953L14.9766 34.7969L14.3047 34.9062C13.5469 35.0234 12.3047 34.9766 11.2891 34.8047C10.4687 34.6562 9.64062 34.25 9.11718 33.7187C8.70312 33.3047 8.59375 33.125 8.05468 31.9297C7.5625 30.8437 7 30.125 6.24218 29.6094C5.72656 29.25 5.29687 28.7812 5.32812 28.6094C5.375 28.375 5.70312 28.2734 6.27343 28.3125C7.375 28.3906 8.52343 29.1953 9.34375 30.4531C9.90625 31.3125 10.4609 31.8516 11.1406 32.1875C11.625 32.4297 11.7578 32.4609 12.4609 32.4844C13.2656 32.5156 14.0781 32.3906 14.7344 32.1406C15.0547 32.0156 15.0703 32 15.1875 31.4766C15.3359 30.8047 15.625 30.1953 16.0156 29.6953L16.3203 29.3125L15.6797 29.2266C13.6172 28.9297 12.1484 28.4297 10.7812 27.5469C8.99218 26.3906 7.92968 24.5859 7.41406 21.8359C7.25781 20.9844 7.23437 18.7969 7.375 17.9922C7.60156 16.6875 8.14062 15.5 8.9375 14.5156L9.28906 14.0859L9.13281 13.6016C8.72656 12.2891 8.80468 10.6953 9.35156 9.11719C9.49218 8.72656 9.52343 8.71094 10.1562 8.74219C11.0781 8.78906 13.0547 9.58594 14.3984 10.4453L14.9531 10.8047L15.3906 10.7187C15.625 10.6719 16.0703 10.5781 16.3828 10.5078C18.5 10.0547 21.5 10.0547 23.6172 10.5078C23.9297 10.5781 24.375 10.6719 24.6094 10.7187L25.0391 10.7969L25.7812 10.3437C27.5469 9.27344 29.5625 8.54687 30.2734 8.73437C30.4766 8.78906 30.5312 8.86719 30.6875 9.32031C31.0234 10.2969 31.1172 10.9609 31.0781 12.0625C31.0469 12.8047 30.9922 13.2187 30.875 13.5859L30.7109 14.0859L31.0547 14.5078C31.75 15.3594 32.2656 16.4141 32.5547 17.5469C32.7266 18.2422 32.75 20.8047 32.5859 21.7969C32.3359 23.3437 31.6953 24.9687 30.9453 25.9531C29.6562 27.6484 27.3203 28.8125 24.3594 29.2187L23.6797 29.3125L23.9844 29.6953C24.3516 30.1641 24.6484 30.7656 24.8125 31.4219C24.9219 31.8281 24.9453 32.4922 24.9688 35.3516C25.0078 39.1797 25.0078 39.1719 25.5312 39.4219C25.8906 39.5859 26.1797 39.5391 27.3203 39.0937C33.0859 36.875 37.6328 31.8125 39.2969 25.7891C40.3984 21.7812 40.1641 17.1328 38.6719 13.2812C37.3281 9.84375 34.9609 6.70312 32.0469 4.51562C28.8828 2.14844 25.2891 0.8125 21.3672 0.554688C20 0.460938 19.8672 0.460938 18.4375 0.554688Z" fill="#E8E8E8"/>
</g>
<defs>
<clipPath id="clip0_12_35">
<rect width="40" height="40" fill="white"/>
</clipPath>
</defs>
</svg>
