<svg width="258" height="258" viewBox="0 0 258 258" fill="none" xmlns="http://www.w3.org/2000/svg">
<rect width="258" height="258" fill="#EF2424"/>
<path d="M36.72 186.752C40.6533 185.651 43.4853 184.628 45.216 183.684C46.9467 182.583 48.1267 181.167 48.756 179.436C49.3853 177.705 49.7 175.031 49.7 171.412V111.704C49.7 105.411 49.228 100.455 48.284 96.836C47.34 93.2173 45.5307 89.5987 42.856 85.98L40.968 83.384L42.856 80.788H92.416C101.069 80.788 106.891 79.7653 109.88 77.72L112.712 75.596L115.072 77.72V107.22L110.352 108.872C107.52 100.376 104.688 94.5547 101.856 91.408C99.1813 88.2613 95.248 86.688 90.056 86.688H82.268C78.1773 86.688 75.5027 87.4747 74.244 89.048C72.9853 90.464 72.356 93.6107 72.356 98.488V133.888H89.112C95.248 133.888 99.26 131.528 101.148 126.808L102.328 123.504L105.396 125.156V151.588L100.204 153.476L99.26 148.52C98.6307 145.059 97.2147 142.777 95.012 141.676C92.8093 140.417 88.64 139.788 82.504 139.788H72.356V160.084C72.356 166.22 72.828 171.176 73.772 174.952C74.8733 178.571 76.7613 182.189 79.436 185.808L81.324 188.64L79.436 191H38.372L36.72 186.752ZM193.918 133.18C201.627 134.911 207.763 138.293 212.326 143.328C217.046 148.363 219.406 154.263 219.406 161.028C219.406 170.153 215.551 177.469 207.842 182.976C200.133 188.325 189.749 191 176.69 191H127.366L125.714 186.752C129.647 185.651 132.479 184.628 134.21 183.684C135.941 182.583 137.121 181.167 137.75 179.436C138.379 177.705 138.694 175.031 138.694 171.412V107.456C138.694 101.949 138.222 97.9373 137.278 95.42C136.491 92.9027 134.525 90.7 131.378 88.812L128.546 87.16L129.49 84.092C134.525 82.5187 140.975 81.26 148.842 80.316C156.866 79.2147 164.103 78.664 170.554 78.664C184.399 78.664 195.177 81.26 202.886 86.452C210.753 91.644 214.686 98.8813 214.686 108.164C214.686 113.985 212.798 119.099 209.022 123.504C205.403 127.752 200.369 130.977 193.918 133.18ZM176.454 185.808C182.118 185.808 186.759 183.527 190.378 178.964C194.154 174.401 196.042 168.58 196.042 161.5C196.042 154.263 193.603 148.363 188.726 143.8C183.849 139.237 176.926 136.169 167.958 134.596V131.764C175.195 131.764 180.859 129.64 184.95 125.392C189.198 121.144 191.322 115.401 191.322 108.164C191.322 100.927 189.591 95.184 186.13 90.936C182.669 86.5307 178.027 84.328 172.206 84.328C168.745 84.328 166.07 85.508 164.182 87.868C162.294 90.0707 161.35 93.2173 161.35 97.308V164.804C161.35 171.255 162.687 176.368 165.362 180.144C168.194 183.92 171.891 185.808 176.454 185.808Z" fill="#E8E8E8"/>
</svg>
